<svg aria-hidden="true" style="position: absolute; width: 0; height: 0; overflow: hidden;" version="1.1" xmlns="http://www.w3.org/2000/svg" xmlns:xlink="http://www.w3.org/1999/xlink">
<defs>
<symbol id="icon-mainSVG" viewBox="0 0 20 32">
<path fill="#5ea1b2" style="fill: var(--color1, #5ea1b2)" d="M19.521 2.717v26.565c0 1.281-1.039 2.32-2.32 2.32h-14.482c-1.281 0-2.32-1.039-2.32-2.32v-26.565c0-1.281 1.039-2.32 2.32-2.32h14.482c1.281 0 2.32 1.039 2.32 2.32z"></path>
<path fill="#bfd9e0" style="fill: var(--color2, #bfd9e0)" d="M17.203 0.108h-14.484c-1.443 0-2.614 1.17-2.615 2.613v26.565c0 1.444 1.171 2.615 2.615 2.615v0h14.484c1.443-0.001 2.613-1.171 2.613-2.615v0-26.565c0-1.443-1.17-2.613-2.613-2.613v0zM18.633 29.281c0 0 0 0 0 0 0 0.794-0.643 1.437-1.436 1.438h-14.478c-0.794-0.001-1.437-0.644-1.438-1.438v-26.565c0.002-0.793 0.645-1.435 1.438-1.436h14.484c0.793 0.001 1.435 0.643 1.436 1.436v0z"></path>
<path fill="#bfd9e0" style="fill: var(--color2, #bfd9e0)" d="M5.226 17.912h9.464c0-2.614-2.119-4.734-4.734-4.734s-4.734 2.119-4.734 4.734v0z"></path>
<path fill="#bfd9e0" style="fill: var(--color2, #bfd9e0)" d="M13.594 9.545c0 2.007-1.627 3.634-3.634 3.634s-3.634-1.627-3.634-3.634c0-2.007 1.627-3.634 3.634-3.634s3.634 1.627 3.634 3.634z"></path>
</symbol>
<symbol id="icon-iconBage" viewBox="0 0 23 32">
<path fill="#5ea1b2" style="fill: var(--color1, #5ea1b2)" d="M3.748 25.212v-15.204c0-0.882 0.715-1.6 1.6-1.6h8.077c0.882 0 1.6 0.715 1.6 1.6v15.204c0 0.882-0.715 1.6-1.6 1.6h-8.077c-0.886 0-1.6-0.718-1.6-1.6z"></path>
<path fill="#bfd9e0" style="fill: var(--color2, #bfd9e0)" d="M13.657 8.233h-8.541c-0.851 0-1.543 0.692-1.543 1.543v15.667c0 0.851 0.692 1.543 1.543 1.543h8.541c0.851 0 1.543-0.692 1.543-1.543v-15.667c0-0.851-0.692-1.543-1.543-1.543zM14.504 25.443c0 0.468-0.38 0.848-0.848 0.848h-8.541c-0.468 0-0.848-0.38-0.848-0.848v-15.667c0-0.467 0.38-0.848 0.848-0.848h8.541c0.467 0 0.848 0.38 0.848 0.848v15.667z"></path>
<path fill="#bfd9e0" style="fill: var(--color2, #bfd9e0)" d="M6.595 18.735h5.584c0-1.543-1.251-2.79-2.79-2.79s-2.794 1.251-2.794 2.79z"></path>
<path fill="#bfd9e0" style="fill: var(--color2, #bfd9e0)" d="M11.532 13.801c0 1.184-0.96 2.144-2.144 2.144s-2.144-0.96-2.144-2.144c0-1.184 0.96-2.144 2.144-2.144s2.144 0.96 2.144 2.144z"></path>
<symbol id="icon-checkmark" viewBox="0 0 32 32">
<path d="M27 4l-15 15-7-7-5 5 12 12 20-20z"></path>
</symbol>
<symbol id="icon-arrow-right" viewBox="0 0 32 32">
<path d="M9.189 32c-0.686 0-1.143-0.229-1.6-0.686-0.914-0.914-0.914-2.286 0-3.2l12.114-12.114-12.114-12.114c-0.914-0.914-0.914-2.286 0-3.2s2.286-0.914 3.2 0l13.714 13.714c0.914 0.914 0.914 2.286 0 3.2l-13.714 13.714c-0.457 0.457-0.914 0.686-1.6 0.686z"></path>
</symbol>
<symbol id="icon-allo-logo2" viewBox="0 0 140 32">
<path d="M28.547 24.115l-0.23-13.122v-1.266c-0.058-3.050-1.554-5.928-4.029-7.655-1.496-1.036-3.338-1.611-5.295-1.611 0 0 0 0 0 0-0.173 0-0.403 0-0.576 0.058 0 0-10.36 1.036-13.87 1.496-1.611 0.23-2.878 1.439-2.878 3.050 0 1.669 1.381 3.050 3.050 3.050l0.576-0.058 4.489-0.46 6.446-0.633 2.072-0.23c0.748-0.058 1.496 0.058 2.13 0.46 1.209 0.806 2.014 2.13 2.014 3.683 0 0.115 0 0.23 0 0.345l-8.403 1.439-3.856 0.633-2.532 0.403-0.46 0.058c-4.201 0.806-7.367 4.489-7.309 8.978 0.058 4.95 4.201 8.863 9.151 8.863h12.777c3.626 0 6.561-2.82 6.791-6.389v0l-0.058-1.094zM22.446 24.978c0 0.23-0.173 0.46-0.46 0.46h-12.892c-1.554 0-2.82-1.266-2.82-2.82 0-1.381 0.978-2.532 2.302-2.82v0c0.058 0 0.115 0 0.173 0l6.906-1.094 1.266-0.173 5.583-0.863v7.309z"></path>
<path d="M66.245 28.374c0 1.842-1.496 3.281-3.281 3.281-1.611 0-2.935-1.151-3.223-2.647v0l-3.281-10.245v-0.058l-2.993-9.324c0-0.058-0.058-0.115-0.058-0.173v0c-0.518-1.439-1.842-2.417-3.396-2.417h-0.058c-1.554 0-2.935 1.036-3.396 2.417v0c0 0.058-0.058 0.115-0.058 0.173l-2.993 9.324v0.058l-3.281 10.245c-0.403 1.496-1.727 2.647-3.281 2.647-1.842 0-3.281-1.496-3.281-3.281 0-0.345 0.058-0.633 0.115-0.921v0l6.158-19.856 0.058-0.173h0.058c1.324-4.086 5.122-7.137 9.669-7.252 0.115 0 0.173 0 0.288 0 0.058 0 0.115 0 0.23 0 4.432 0.173 8.23 3.165 9.554 7.309h0.058l0.058 0.173 6.158 19.799v0.058c0.115 0.23 0.173 0.576 0.173 0.863z"></path>
<path d="M103.942 28.374c0 1.842-1.496 3.281-3.281 3.281-1.612 0-2.935-1.151-3.223-2.647v0l-3.281-10.245v-0.058l-2.993-9.324c0-0.058-0.058-0.115-0.058-0.173v0c-0.518-1.439-1.842-2.417-3.396-2.417h-0.058c-1.554 0-2.935 1.036-3.396 2.417v0c0 0.058-0.058 0.115-0.058 0.173l-3.050 9.381v0.058l-3.281 10.245c-0.288 1.496-1.612 2.647-3.223 2.647-1.842 0-3.281-1.496-3.281-3.281 0-0.345 0.058-0.633 0.115-0.921v0l6.158-19.856 0.058-0.173h0.058c1.324-4.086 5.122-7.137 9.669-7.252 0.115 0 0.173 0 0.288 0 0.058 0 0.115 0 0.23 0 4.547 0.115 8.345 3.108 9.669 7.252h0.058l0.058 0.173 6.158 19.799v0.058c0 0.23 0.058 0.576 0.058 0.863z"></path>
<path d="M123.453 0.115c-8.806 0-16 7.137-16 16s7.137 16 16 16 16-7.137 16-16-7.137-16-16-16zM123.453 25.669c-5.237 0-9.554-4.259-9.554-9.554 0-5.237 4.259-9.554 9.554-9.554 5.237 0 9.554 4.259 9.554 9.554 0 5.237-4.259 9.554-9.554 9.554z"></path>
<path d="M128.173 16.115c0 2.606-2.113 4.719-4.719 4.719s-4.719-2.113-4.719-4.719c0-2.606 2.113-4.719 4.719-4.719s4.719 2.113 4.719 4.719z"></path>
</symbol>

</defs>
</svg>
