<svg aria-hidden="true" style="position: absolute; width: 0; height: 0; overflow: hidden;" version="1.1" xmlns="http://www.w3.org/2000/svg" xmlns:xlink="http://www.w3.org/1999/xlink">
<defs>
<symbol id="icon-mainSVG" viewBox="0 0 20 32">
<path fill="#5ea1b2" style="fill: var(--color1, #5ea1b2)" d="M19.521 2.717v26.565c0 1.281-1.039 2.32-2.32 2.32h-14.482c-1.281 0-2.32-1.039-2.32-2.32v-26.565c0-1.281 1.039-2.32 2.32-2.32h14.482c1.281 0 2.32 1.039 2.32 2.32z"></path>
<path fill="#bfd9e0" style="fill: var(--color2, #bfd9e0)" d="M17.203 0.108h-14.484c-1.443 0-2.614 1.17-2.615 2.613v26.565c0 1.444 1.171 2.615 2.615 2.615v0h14.484c1.443-0.001 2.613-1.171 2.613-2.615v0-26.565c0-1.443-1.17-2.613-2.613-2.613v0zM18.633 29.281c0 0 0 0 0 0 0 0.794-0.643 1.437-1.436 1.438h-14.478c-0.794-0.001-1.437-0.644-1.438-1.438v-26.565c0.002-0.793 0.645-1.435 1.438-1.436h14.484c0.793 0.001 1.435 0.643 1.436 1.436v0z"></path>
<path fill="#bfd9e0" style="fill: var(--color2, #bfd9e0)" d="M5.226 17.912h9.464c0-2.614-2.119-4.734-4.734-4.734s-4.734 2.119-4.734 4.734v0z"></path>
<path fill="#bfd9e0" style="fill: var(--color2, #bfd9e0)" d="M13.594 9.545c0 2.007-1.627 3.634-3.634 3.634s-3.634-1.627-3.634-3.634c0-2.007 1.627-3.634 3.634-3.634s3.634 1.627 3.634 3.634z"></path>
</symbol>
<symbol id="icon-iconBage" viewBox="0 0 23 32">
<path fill="#5ea1b2" style="fill: var(--color1, #5ea1b2)" d="M3.748 25.212v-15.204c0-0.882 0.715-1.6 1.6-1.6h8.077c0.882 0 1.6 0.715 1.6 1.6v15.204c0 0.882-0.715 1.6-1.6 1.6h-8.077c-0.886 0-1.6-0.718-1.6-1.6z"></path>
<path fill="#bfd9e0" style="fill: var(--color2, #bfd9e0)" d="M13.657 8.233h-8.541c-0.851 0-1.543 0.692-1.543 1.543v15.667c0 0.851 0.692 1.543 1.543 1.543h8.541c0.851 0 1.543-0.692 1.543-1.543v-15.667c0-0.851-0.692-1.543-1.543-1.543zM14.504 25.443c0 0.468-0.38 0.848-0.848 0.848h-8.541c-0.468 0-0.848-0.38-0.848-0.848v-15.667c0-0.467 0.38-0.848 0.848-0.848h8.541c0.467 0 0.848 0.38 0.848 0.848v15.667z"></path>
<path fill="#bfd9e0" style="fill: var(--color2, #bfd9e0)" d="M6.595 18.735h5.584c0-1.543-1.251-2.79-2.79-2.79s-2.794 1.251-2.794 2.79z"></path>
<path fill="#bfd9e0" style="fill: var(--color2, #bfd9e0)" d="M11.532 13.801c0 1.184-0.96 2.144-2.144 2.144s-2.144-0.96-2.144-2.144c0-1.184 0.96-2.144 2.144-2.144s2.144 0.96 2.144 2.144z"></path>
</symbol>

</defs>
</svg>
